<?xml version="1.0" encoding="UTF-8"?>
<!DOCTYPE svg PUBLIC "-//W3C//DTD SVG 1.1//EN" "http://www.w3.org/Graphics/SVG/1.1/DTD/svg11.dtd">
<!-- Creator: CorelDRAW 2020 (64-Bit) -->
<svg xmlns="http://www.w3.org/2000/svg" xml:space="preserve" width="20.6376mm" height="20.6376mm" version="1.1" style="shape-rendering:geometricPrecision; text-rendering:geometricPrecision; image-rendering:optimizeQuality; fill-rule:evenodd; clip-rule:evenodd"
viewBox="0 0 477.42 477.42"
 xmlns:xlink="http://www.w3.org/1999/xlink"
 xmlns:xodm="http://www.corel.com/coreldraw/odm/2003">
 <defs>
  <style type="text/css">
   <![CDATA[
    .fil0 {fill:#FFA200;fill-rule:nonzero}
   ]]>
  </style>
 </defs>
 <g id="Capa_x0020_1">
  <metadata id="CorelCorpID_0Corel-Layer"/>
  <g id="_2955163385712">
   <g text-anchor="none">
    <g>
     <path class="fil0" d="M238.71 0c-131.83,0 -238.71,106.88 -238.71,238.71 0,112.72 78.15,207.13 183.21,232.15 -5.44,-1.3 -10.82,-2.75 -16.11,-4.4l0 -54.69c0,0 -8.95,2.98 -20.89,2.98 -33.39,0 -47.26,-29.79 -50.72,-44.76 -2.1,-9.12 -7.59,-17.76 -13.49,-23.04 -7.04,-6.28 -10.34,-6.3 -10.38,-8.45 -0.09,-4.51 6.04,-4.32 8.95,-4.32 14.92,0 26.23,15.87 31.48,24.08 13.01,20.26 26.97,23.66 34.16,23.66 8.95,0 16.68,-1.34 22.01,-3.91 2.46,-17.33 10.17,-32.78 22.75,-43.83 -55.98,-11.19 -95.48,-43.3 -95.48,-95.48 0,-26.88 10.79,-51.59 28.76,-71.54 -1.84,-5.21 -4.89,-15.74 -4.89,-32.9 0,-11.34 0.79,-25.26 5.97,-38.79 0,0 34.04,0.24 66.15,30.65 14.82,-4.31 30.68,-6.78 47.24,-6.78 16.56,0 32.42,2.46 47.24,6.78 32.11,-30.41 66.15,-30.65 66.15,-30.65 5.21,13.53 5.97,27.45 5.97,38.79 0,18.5 -2.46,29.29 -3.97,33.94 17.43,19.77 27.84,44.09 27.84,70.49 0,52.18 -39.51,84.29 -95.48,95.48 14.95,13.13 23.87,32.25 23.87,53.71l0 78.56c-5.29,1.66 -10.67,3.1 -16.11,4.4 105.06,-25.03 183.21,-119.44 183.21,-232.15 0,-131.83 -106.88,-238.71 -238.71,-238.71l-0 0zm16.64 476.78c-5.5,0.39 -11.04,0.64 -16.64,0.64 5.6,0 11.14,-0.27 16.64,-0.64zm36.48 -5.36c-10.69,2.43 -21.64,4.14 -32.82,5.09 11.18,-0.95 22.14,-2.66 32.82,-5.09zm-53.12 6c-5.6,0 -11.15,-0.26 -16.64,-0.64 5.51,0.38 11.04,0.64 16.64,0.64zm-20.31 -0.92c-11.17,-0.95 -22.14,-2.65 -32.81,-5.09 10.69,2.42 21.64,4.14 32.81,5.09z"/>
    </g>
   </g>
  </g>
 </g>
</svg>
