<?xml version="1.0" encoding="UTF-8"?>
<!DOCTYPE svg PUBLIC "-//W3C//DTD SVG 1.1//EN" "http://www.w3.org/Graphics/SVG/1.1/DTD/svg11.dtd">
<!-- Creator: CorelDRAW 2020 (64-Bit) -->
<svg xmlns="http://www.w3.org/2000/svg" xml:space="preserve" width="20.6374mm" height="20.6374mm" version="1.1" style="shape-rendering:geometricPrecision; text-rendering:geometricPrecision; image-rendering:optimizeQuality; fill-rule:evenodd; clip-rule:evenodd"
viewBox="0 0 592.5 592.5"
 xmlns:xlink="http://www.w3.org/1999/xlink"
 xmlns:xodm="http://www.corel.com/coreldraw/odm/2003">
 <defs>
  <style type="text/css">
   <![CDATA[
    .fil0 {fill:#FFA200;fill-rule:nonzero}
   ]]>
  </style>
 </defs>
 <g id="Capa_x0020_1">
  <metadata id="CorelCorpID_0Corel-Layer"/>
  <g id="_2955064231584">
   <g text-anchor="none">
    <g>
     <path class="fil0" d="M444.38 282.54c4.54,6.85 9.08,13.71 11.39,25.1l-72.91 0c0,-2.31 0,-6.85 2.23,-11.39 2.31,-4.54 2.31,-6.85 6.85,-11.39 2.31,-4.54 6.85,-6.85 11.39,-9.08 4.54,-2.31 11.39,-4.63 18.25,-4.63 9.08,2.31 18.25,4.63 22.79,11.39l0 -0zm-209.64 -15.93c4.54,-4.54 9.08,-11.39 9.08,-20.48 0,-4.54 0,-9.17 -2.23,-13.71 -2.31,-2.23 -4.63,-6.85 -6.85,-6.85 -2.31,-2.23 -6.85,-2.23 -11.39,-4.54 -4.54,0 -9.17,0 -13.71,0l-45.58 0 0 52.43 50.12 0c6.85,0 13.71,-2.31 20.56,-6.85l0 -0zm-18.25 38.72l-52.43 0 0 61.6 52.43 0c4.54,0 9.08,0 13.71,-2.31 4.54,0 9.08,-2.31 11.39,-4.54 2.23,-2.31 6.76,-4.54 9.08,-9.17 2.31,-4.54 2.31,-9.08 2.31,-13.62 0,-11.39 -2.31,-20.56 -9.17,-25.1 -6.85,-4.54 -15.93,-6.85 -27.33,-6.85l0 -0zm376.01 -193.7l0 369.24c0,61.51 -50.12,111.63 -111.63,111.63l-369.24 0c-61.51,0 -111.63,-50.12 -111.63,-111.63l0 -369.24c0,-61.51 50.12,-111.63 111.63,-111.63l369.24 0c61.51,0 111.63,50.12 111.63,111.63zm-218.8 107.18l91.15 0 0 -22.79 -91.15 0 0 22.79zm-72.91 123.02c0,-13.71 -2.23,-25.1 -9.08,-36.5 -6.85,-9.08 -15.93,-15.93 -29.64,-20.47 9.08,-4.54 18.25,-11.39 22.79,-18.25 4.54,-6.85 6.85,-15.93 6.85,-27.33 0,-11.39 -2.31,-18.25 -4.54,-27.33 -4.63,-6.85 -9.17,-13.71 -13.71,-15.93 -6.85,-4.63 -13.71,-6.85 -22.79,-9.17 -11.39,-4.54 -20.48,-4.54 -31.87,-4.54l-104.86 0 0 223.34 109.4 0c9.08,0 20.47,-2.31 29.64,-4.54 9.08,-2.31 18.16,-6.85 25.01,-11.39 6.85,-4.63 13.71,-11.39 18.25,-20.56 2.31,-6.85 4.54,-15.93 4.54,-27.33l0 0zm82.08 -6.86l116.17 0c0,-13.62 0,-25.01 -2.23,-36.41 -2.31,-11.39 -6.85,-22.79 -13.71,-29.64 -6.85,-9.17 -15.93,-15.93 -25.01,-20.56 -11.39,-4.54 -22.79,-9.08 -36.5,-9.08 -11.39,0 -22.79,2.31 -34.18,6.85 -9.08,4.54 -18.25,11.4 -27.33,18.25 -6.86,6.76 -13.71,15.93 -15.94,27.33 -4.63,11.39 -6.85,22.79 -6.85,34.18 0,11.39 2.23,25.01 6.85,34.18 4.54,11.39 9.08,20.47 15.94,27.33 6.85,6.85 15.93,13.71 25.01,18.25 11.39,4.54 22.79,6.86 34.18,6.86 18.25,0 34.18,-4.63 47.89,-13.71 13.71,-9.08 22.79,-22.79 29.64,-41.04l-38.72 0c-2.31,4.54 -4.63,9.17 -11.39,13.71 -6.85,4.54 -13.71,6.85 -22.79,6.85 -11.39,0 -22.79,-2.31 -29.64,-9.17 -6.85,-9.08 -11.39,-20.47 -11.39,-34.18l0 0z"/>
    </g>
   </g>
  </g>
 </g>
</svg>
