<?xml version="1.0" encoding="UTF-8"?>
<!DOCTYPE svg PUBLIC "-//W3C//DTD SVG 1.1//EN" "http://www.w3.org/Graphics/SVG/1.1/DTD/svg11.dtd">
<!-- Creator: CorelDRAW 2020 (64-Bit) -->
<svg xmlns="http://www.w3.org/2000/svg" xml:space="preserve" width="20.6376mm" height="20.6376mm" version="1.1" style="shape-rendering:geometricPrecision; text-rendering:geometricPrecision; image-rendering:optimizeQuality; fill-rule:evenodd; clip-rule:evenodd"
viewBox="0 0 1307.86 1307.86"
 xmlns:xlink="http://www.w3.org/1999/xlink"
 xmlns:xodm="http://www.corel.com/coreldraw/odm/2003">
 <defs>
  <style type="text/css">
   <![CDATA[
    .fil0 {fill:#FFA200;fill-rule:nonzero}
   ]]>
  </style>
 </defs>
 <g id="Capa_x0020_1">
  <metadata id="CorelCorpID_0Corel-Layer"/>
  <g id="_2955165315968">
   <g text-anchor="none">
    <g>
     <path class="fil0" d="M363.3 0.01c-200.32,0 -363.3,162.97 -363.3,363.29l0 581.27c0,200.32 162.98,363.29 363.3,363.29l581.27 -0.01c200.32,0 363.3,-162.97 363.3,-363.29l0 -581.27c0,-200.32 -162.98,-363.29 -363.3,-363.29l-581.27 0.01zm0 145.31l581.27 0c120.18,0 217.98,97.8 217.98,217.98l0 581.27c0,120.18 -97.8,217.98 -217.98,217.98l-581.27 -0.01c-120.18,0 -217.98,-97.8 -217.98,-217.98l0 -581.27c0,-120.18 97.8,-217.98 217.98,-217.98l0 0.01zm653.93 72.66c-40.13,0 -72.66,32.53 -72.66,72.66 0,40.13 32.53,72.66 72.66,72.66 40.13,0 72.66,-32.53 72.66,-72.66 0,-40.13 -32.53,-72.66 -72.66,-72.66zm-363.3 72.66c-200.32,0 -363.3,162.97 -363.3,363.3 0,200.32 162.97,363.3 363.3,363.3 200.32,0 363.3,-162.97 363.3,-363.3 0,-200.32 -162.97,-363.3 -363.3,-363.3zm0 145.32c120.18,0 217.98,97.8 217.98,217.98 0,120.18 -97.8,217.98 -217.98,217.98 -120.18,0 -217.98,-97.8 -217.98,-217.98 0,-120.18 97.8,-217.98 217.98,-217.98z"/>
    </g>
   </g>
  </g>
 </g>
</svg>
