<?xml version="1.0" encoding="UTF-8"?>
<!DOCTYPE svg PUBLIC "-//W3C//DTD SVG 1.1//EN" "http://www.w3.org/Graphics/SVG/1.1/DTD/svg11.dtd">
<!-- Creator: CorelDRAW 2020 (64-Bit) -->
<svg xmlns="http://www.w3.org/2000/svg" xml:space="preserve" width="133.877mm" height="133.877mm" version="1.1" style="shape-rendering:geometricPrecision; text-rendering:geometricPrecision; image-rendering:optimizeQuality; fill-rule:evenodd; clip-rule:evenodd"
viewBox="0 0 22729.26 22729.26"
 xmlns:xlink="http://www.w3.org/1999/xlink"
 xmlns:xodm="http://www.corel.com/coreldraw/odm/2003">
 <defs>
  <style type="text/css">
   <![CDATA[
    .fil0 {fill:none}
    .fil1 {fill:#FFB700}
    .fil3 {fill:#FFB700;fill-rule:nonzero}
    .fil2 {fill:#FFD900;fill-rule:nonzero}
   ]]>
  </style>
 </defs>
 <g id="Capa_x0020_1">
  <metadata id="CorelCorpID_0Corel-Layer"/>
  <rect class="fil0" x="0" y="0" width="22729.26" height="22729.26"/>
  <g id="_3085821504384">
   <path class="fil1" d="M11198.71 152.17c15.5,0.36 30.88,0.85 46.28,1.41 37.11,1.02 74.11,2.63 111.07,4.19 1960.55,88.44 3735.8,888.32 5073.96,2147.64 -840.53,924.32 -1923.67,1350.71 -3397.71,974.74 -626.65,-266.28 -1316.14,-413.66 -2040.07,-413.66 -1441.44,0 -2746.32,584.13 -3690.83,1528.6 -944.47,944.52 -1528.67,2249.46 -1528.67,3690.89 0,970.15 261.59,1874.89 717.46,2647.53 385.77,653.79 905.1,1214.82 1518.52,1643.54l7786.82 -2233.96c102.66,-239.22 187.98,-487.48 254.21,-743.04 105.75,-408.08 162.09,-848 162.09,-1314.07 0,-154.43 -6.76,-307.38 -19.88,-458.41l-4740.2 1365.36c-1588.28,90.71 -2117.86,-1828.21 -742.86,-2600.28l7269.26 -2093.87c540.38,994.84 873.33,2118.51 942.4,3312.95 5.5,152.14 8.27,309.89 8.27,474.25 0,676.36 -89.49,1344.72 -257.59,1993.26 -170.68,658.44 -423.32,1283.09 -746.29,1862.54l-105.91 189.95c-62.8,105.3 -128.01,208.94 -195.45,311.01l-510.55 146.38 -8929.06 2561.66 -472.23 135.5c-2732.03,-1251.08 -4630.05,-4008.85 -4630.05,-7210.19 0,-4377.61 3548.69,-7926.35 7926.35,-7926.35 63.75,0 127.35,0.92 190.66,2.43z"/>
   <polygon class="fil2" points="17600.43,16176.27 7717.06,19011.69 7717.06,16201.06 17600.43,13365.7 "/>
   <polygon class="fil3" points="16414.93,20244.54 8902.56,22399.81 8902.56,19589.22 16414.93,17434.01 "/>
  </g>
 </g>
</svg>
