<?xml version="1.0" encoding="UTF-8"?>
<!DOCTYPE svg PUBLIC "-//W3C//DTD SVG 1.1//EN" "http://www.w3.org/Graphics/SVG/1.1/DTD/svg11.dtd">
<!-- Creator: CorelDRAW 2020 (64-Bit) -->
<svg xmlns="http://www.w3.org/2000/svg" xml:space="preserve" width="20.6376mm" height="20.6376mm" version="1.1" style="shape-rendering:geometricPrecision; text-rendering:geometricPrecision; image-rendering:optimizeQuality; fill-rule:evenodd; clip-rule:evenodd"
viewBox="0 0 1852.91 1852.91"
 xmlns:xlink="http://www.w3.org/1999/xlink"
 xmlns:xodm="http://www.corel.com/coreldraw/odm/2003">
 <defs>
  <style type="text/css">
   <![CDATA[
    .fil0 {fill:#FFA200;fill-rule:nonzero}
   ]]>
  </style>
 </defs>
 <g id="Capa_x0020_1">
  <metadata id="CorelCorpID_0Corel-Layer"/>
  <g id="_2955163575856">
   <g text-anchor="none">
    <g>
     <path class="fil0" d="M308.82 0c-169.32,0 -308.82,139.5 -308.82,308.82l0 1235.28c0,169.32 139.5,308.82 308.82,308.82l1235.28 0c169.32,0 308.82,-139.5 308.82,-308.82l0 -1235.28c0,-169.32 -139.5,-308.82 -308.82,-308.82l-1235.28 0zm0 205.88l1235.28 0c58.16,0 102.94,44.77 102.94,102.94l0 1235.28c0,58.16 -44.77,102.94 -102.94,102.94l-1235.28 0c-58.16,0 -102.94,-44.77 -102.94,-102.94l0 -1235.28c0,-58.16 44.77,-102.94 102.94,-102.94zm617.64 205.87l0 720.57c0,58.16 -44.77,102.94 -102.94,102.94 -58.16,0 -102.94,-44.77 -102.94,-102.94 0,-58.16 44.77,-102.94 102.94,-102.94l0 -205.88c-169.33,0 -308.82,139.49 -308.82,308.82 0,169.33 139.49,308.82 308.82,308.82 169.33,0 308.82,-139.49 308.82,-308.82l0 -387.84c63.42,45.18 129.61,79.02 205.88,79.02l0 -205.88c-4.88,0 -75.89,-22.54 -125.45,-65.74 -49.56,-43.19 -80.42,-97.41 -80.42,-140.13l-205.89 0z"/>
    </g>
   </g>
  </g>
 </g>
</svg>
