<?xml version="1.0" encoding="UTF-8"?>
<!DOCTYPE svg PUBLIC "-//W3C//DTD SVG 1.1//EN" "http://www.w3.org/Graphics/SVG/1.1/DTD/svg11.dtd">
<!-- Creator: CorelDRAW 2020 (64-Bit) -->
<svg xmlns="http://www.w3.org/2000/svg" xml:space="preserve" width="80px" height="80px" version="1.1" style="shape-rendering:geometricPrecision; text-rendering:geometricPrecision; image-rendering:optimizeQuality; fill-rule:evenodd; clip-rule:evenodd"
viewBox="0 0 135.82 135.82"
 xmlns:xlink="http://www.w3.org/1999/xlink"
 xmlns:xodm="http://www.corel.com/coreldraw/odm/2003">
 <defs>
  <style type="text/css">
   <![CDATA[
    .fil0 {fill:none}
    .fil1 {fill:#F89F2D}
    .fil2 {fill:#A65817;fill-rule:nonzero}
    .fil3 {fill:#F89F2D;fill-rule:nonzero}
   ]]>
  </style>
 </defs>
 <g id="Capa_x0020_1">
  <metadata id="CorelCorpID_0Corel-Layer"/>
  <rect class="fil0" width="135.82" height="135.82"/>
  <g id="_3049514104176">
   <path class="fil1" d="M66.92 0.91c0.09,0 0.18,0 0.28,0.01 0.22,0 0.44,0.01 0.66,0.02 11.71,0.53 22.32,5.31 30.32,12.84 -5.02,5.52 -11.5,8.07 -20.3,5.82 -3.75,-1.59 -7.87,-2.47 -12.19,-2.47 -8.62,0 -16.42,3.49 -22.06,9.13 -5.64,5.65 -9.13,13.45 -9.13,22.06 0,5.8 1.56,11.2 4.28,15.82 2.31,3.91 5.41,7.26 9.08,9.82l46.53 -13.35c0.61,-1.43 1.12,-2.91 1.52,-4.44 0.63,-2.44 0.97,-5.07 0.97,-7.85 0,-0.92 -0.04,-1.84 -0.12,-2.74l-28.33 8.16c-9.49,0.54 -12.65,-10.93 -4.44,-15.54l43.44 -12.51c3.23,5.94 5.22,12.66 5.63,19.79 0.03,0.91 0.05,1.86 0.05,2.84 0,4.04 -0.53,8.03 -1.54,11.91 -1.02,3.93 -2.53,7.67 -4.46,11.13l-0.63 1.13c-0.38,0.63 -0.77,1.25 -1.17,1.86l-3.05 0.88 -53.36 15.31 -2.82 0.8c-16.32,-7.47 -27.66,-23.95 -27.66,-43.08 0,-26.16 21.2,-47.37 47.36,-47.37 0.38,0 0.76,0.01 1.14,0.02z"/>
   <polygon class="fil2" points="105.17,96.66 46.11,113.61 46.11,96.81 105.17,79.87 "/>
   <polygon class="fil3" points="98.09,120.97 53.2,133.85 53.2,117.06 98.09,104.18 "/>
  </g>
 </g>
</svg>
