<?xml version="1.0" encoding="UTF-8"?>
<!DOCTYPE svg PUBLIC "-//W3C//DTD SVG 1.1//EN" "http://www.w3.org/Graphics/SVG/1.1/DTD/svg11.dtd">
<!-- Creator: CorelDRAW 2020 (64-Bit) -->
<svg xmlns="http://www.w3.org/2000/svg" xml:space="preserve" width="13.4961mm" height="18.0506mm" version="1.1" style="shape-rendering:geometricPrecision; text-rendering:geometricPrecision; image-rendering:optimizeQuality; fill-rule:evenodd; clip-rule:evenodd"
viewBox="0 0 103.4 138.29"
 xmlns:xlink="http://www.w3.org/1999/xlink"
 xmlns:xodm="http://www.corel.com/coreldraw/odm/2003">
 <defs>
  <style type="text/css">
   <![CDATA[
    .fil0 {fill:#FFA200}
   ]]>
  </style>
 </defs>
 <g id="Capa_x0020_1">
  <metadata id="CorelCorpID_0Corel-Layer"/>
  <polygon class="fil0" points="95.4,84.95 95.4,100.61 30.14,119.33 30.14,103.67 "/>
  <path class="fil0" d="M52.96 0.02c0.1,0 0.2,0.01 0.3,0.01 0.24,0.01 0.48,0.02 0.72,0.03 12.79,0.58 24.38,5.8 33.11,14.01 -5.48,6.03 -12.55,8.81 -22.17,6.36 -4.09,-1.74 -8.59,-2.7 -13.31,-2.7 -9.4,0 -17.92,3.81 -24.08,9.97 -6.16,6.16 -9.97,14.68 -9.97,24.08 0,6.33 1.71,12.23 4.68,17.27 2.52,4.27 5.91,7.93 9.91,10.72l50.81 -14.58c0.67,-1.56 1.23,-3.18 1.66,-4.85 0.69,-2.66 1.06,-5.53 1.06,-8.57 0,-1.01 -0.04,-2 -0.13,-2.99l-30.93 8.91c-10.36,0.59 -13.82,-11.93 -4.85,-16.97l47.43 -13.66c3.52,6.49 5.7,13.82 6.15,21.62 0.04,0.99 0.05,2.02 0.05,3.09 0,4.41 -0.58,8.77 -1.68,13.01 -1.11,4.3 -2.76,8.37 -4.87,12.15l-0.69 1.24c-0.41,0.69 -0.84,1.36 -1.27,2.03l-3.33 0.96 -58.26 16.71 -3.08 0.88c-17.83,-8.16 -30.21,-26.16 -30.21,-47.04 0,-28.56 23.15,-51.72 51.72,-51.72 0.42,0 0.83,0.01 1.24,0.02z"/>
  <polygon class="fil0" points="90.01,122.66 35.54,138.29 35.54,122.63 90.01,107 "/>
 </g>
</svg>
